<svg xmlns="http://www.w3.org/2000/svg" width="1200" height="780" viewBox="0 0 1200 780" role="img" aria-labelledby="title desc"><title id="title">BrowserGuard hybrid ML dashboard preview</title><desc id="desc">Static preview of BrowserGuard showing hybrid rule and Isolation Forest extension risk.</desc><rect width="1200" height="780" rx="24" fill="#08111f"/><rect x="26" y="24" width="1148" height="732" rx="18" fill="#0b1020" stroke="#26334d"/><circle cx="56" cy="52" r="5" fill="#ef4444"/><circle cx="74" cy="52" r="5" fill="#f59e0b"/><circle cx="92" cy="52" r="5" fill="#22c55e"/><text x="126" y="58" font-family="Arial" font-size="15" fill="#94a3b8">browserguard.local</text><line x1="26" y1="78" x2="1174" y2="78" stroke="#26334d"/><text x="58" y="124" font-family="Arial" font-size="34" font-weight="700" fill="#7dd3fc">BrowserGuard</text><text x="58" y="152" font-family="Arial" font-size="16" fill="#94a3b8">Hybrid Browser &amp; Extension Detection / Response · Rules + Isolation Forest + blast radius</text><rect x="950" y="106" width="178" height="34" rx="17" fill="#21153d" stroke="#6d28d9"/><text x="969" y="128" font-family="Arial" font-size="12" fill="#ddd6fe">ML: ISOLATION FOREST</text><rect x="58" y="184" width="252" height="96" rx="14" fill="#131b2e" stroke="#26334d"/><rect x="330" y="184" width="252" height="96" rx="14" fill="#131b2e" stroke="#26334d"/><rect x="602" y="184" width="252" height="96" rx="14" fill="#131b2e" stroke="#26334d"/><rect x="874" y="184" width="254" height="96" rx="14" fill="#131b2e" stroke="#26334d"/><text x="80" y="221" font-family="Arial" font-size="13" fill="#94a3b8">EXTENSIONS</text><text x="80" y="256" font-family="Arial" font-size="30" font-weight="700" fill="#f8fafc">8</text><text x="352" y="221" font-family="Arial" font-size="13" fill="#94a3b8">CRITICAL</text><text x="352" y="256" font-family="Arial" font-size="30" font-weight="700" fill="#fb7185">2</text><text x="624" y="221" font-family="Arial" font-size="13" fill="#94a3b8">ML OUTLIERS</text><text x="624" y="256" font-family="Arial" font-size="30" font-weight="700" fill="#c4b5fd">6</text><text x="896" y="221" font-family="Arial" font-size="13" fill="#94a3b8">USERS EXPOSED</text><text x="896" y="256" font-family="Arial" font-size="30" font-weight="700" fill="#f8fafc">1,251</text><text x="58" y="326" font-family="Arial" font-size="18" font-weight="700" fill="#e2e8f0">Extension risk queue</text><text x="790" y="326" font-family="Arial" font-size="12" fill="#64748b">RULES</text><text x="868" y="326" font-family="Arial" font-size="12" fill="#64748b">ML</text><text x="1043" y="326" font-family="Arial" font-size="12" fill="#64748b">HYBRID</text><g font-family="Arial"><rect x="58" y="348" width="1070" height="52" rx="10" fill="#131b2e" stroke="#26334d"/><text x="100" y="370" font-size="15" font-weight="700" fill="#f8fafc">AI Page Helper</text><text x="100" y="388" font-size="11" fill="#94a3b8">permission drift · session/cookie · AI context · OAuth bridge · 73.3× activity</text><text x="796" y="378" font-size="13" fill="#cbd5e1">100</text><text x="862" y="378" font-size="13" fill="#c4b5fd">100.0p</text><text x="960" y="378" font-size="12" font-weight="700" fill="#fecdd3">CRITICAL</text><text x="1062" y="378" font-size="16" font-weight="700" fill="#fb7185">100</text><rect x="58" y="410" width="1070" height="52" rx="10" fill="#131b2e" stroke="#26334d"/><text x="100" y="432" font-size="15" font-weight="700" fill="#f8fafc">Coupon Companion</text><text x="100" y="450" font-size="11" fill="#94a3b8">external update · cookie/session · external posting · 23.3× activity</text><text x="796" y="440" font-size="13" fill="#cbd5e1">100</text><text x="862" y="440" font-size="13" fill="#c4b5fd">100.0p</text><text x="960" y="440" font-size="12" font-weight="700" fill="#fecdd3">CRITICAL</text><text x="1062" y="440" font-size="16" font-weight="700" fill="#fb7185">100</text><rect x="58" y="472" width="1070" height="52" rx="10" fill="#131b2e" stroke="#26334d"/><text x="100" y="494" font-size="15" font-weight="700" fill="#f8fafc">Dev Header Switcher</text><text x="100" y="512" font-size="11" fill="#94a3b8">unverified · blocking web request · permission change · beta channel</text><text x="796" y="502" font-size="13" fill="#cbd5e1">60</text><text x="862" y="502" font-size="13" fill="#c4b5fd">100.0p</text><text x="960" y="502" font-size="12" font-weight="700" fill="#fed7aa">HIGH_RISK</text><text x="1062" y="502" font-size="16" font-weight="700" fill="#fb923c">72</text><rect x="58" y="534" width="1070" height="52" rx="10" fill="#131b2e" stroke="#26334d"/><text x="100" y="556" font-size="15" font-weight="700" fill="#f8fafc">Sales Capture</text><text x="100" y="574" font-size="11" fill="#94a3b8">session access · external posting · OAuth bridge · permission drift · 3.4× activity</text><text x="796" y="564" font-size="13" fill="#cbd5e1">52</text><text x="862" y="564" font-size="13" fill="#c4b5fd">100.0p</text><text x="960" y="564" font-size="12" font-weight="700" fill="#fed7aa">HIGH_RISK</text><text x="1062" y="564" font-size="16" font-weight="700" fill="#fb923c">64</text><rect x="58" y="596" width="1070" height="52" rx="10" fill="#131b2e" stroke="#26334d"/><text x="100" y="618" font-size="15" font-weight="700" fill="#f8fafc">Legacy Clipboard Pro</text><text x="100" y="636" font-size="11" fill="#94a3b8">legacy unverified extension · clipboard access · all-URL reach</text><text x="796" y="626" font-size="13" fill="#cbd5e1">53</text><text x="862" y="626" font-size="13" fill="#c4b5fd">96.0p</text><text x="960" y="626" font-size="12" font-weight="700" fill="#fed7aa">HIGH_RISK</text><text x="1062" y="626" font-size="16" font-weight="700" fill="#fb923c">61</text><rect x="58" y="658" width="1070" height="52" rx="10" fill="#131b2e" stroke="#26334d"/><text x="100" y="680" font-size="15" font-weight="700" fill="#f8fafc">Meeting Summarizer</text><text x="100" y="698" font-size="11" fill="#94a3b8">AI assistant · browser session · OAuth bridge</text><text x="796" y="688" font-size="13" fill="#cbd5e1">35</text><text x="862" y="688" font-size="13" fill="#c4b5fd">99.5p</text><text x="960" y="688" font-size="12" font-weight="700" fill="#fef08a">REVIEW</text><text x="1062" y="688" font-size="16" font-weight="700" fill="#facc15">47</text></g><text x="58" y="738" font-family="Arial" font-size="12" fill="#64748b">Synthetic baseline · ML percentile is relative to deterministic normal-reference behavior, not a compromise probability.</text></svg>